<svg width="64" height="64" viewBox="0 0 64 64" fill="none" xmlns="http://www.w3.org/2000/svg">
  <rect width="64" height="64" rx="18" fill="#12263A"/>
  <path
    d="M32 10C22.5 10 19 16.25 19 22.75C19 31.5 24.75 40.25 28 47C29 49.25 30 52 32 52C34 52 35 49.25 36 47C39.25 40.25 45 31.5 45 22.75C45 16.25 41.5 10 32 10Z"
    stroke="#D0A94B"
    stroke-width="3"
    stroke-linecap="round"
    stroke-linejoin="round"
  />
  <path
    d="M26 21C26 17.6863 28.6863 15 32 15C35.3137 15 38 17.6863 38 21"
    stroke="#D0A94B"
    stroke-width="2.5"
    stroke-linecap="round"
  />
  <path
    d="M24.5 31.5C27 34.8333 29.6667 36.5 32.5 36.5C35.3333 36.5 38 34.8333 40.5 31.5"
    stroke="#F4E6C1"
    stroke-width="2.5"
    stroke-linecap="round"
  />
</svg>
